<mxfile host="Electron" agent="Mozilla/5.0 (Windows NT 10.0; Win64; x64) AppleWebKit/537.36 (KHTML, like Gecko) draw.io/26.1.1 Chrome/132.0.6834.210 Electron/34.3.3 Safari/537.36" version="26.1.1">
  <diagram name="Page-1" id="uPmyWq5QnjV8NjeUVUPQ">
    <mxGraphModel dx="1017" dy="1181" grid="1" gridSize="10" guides="1" tooltips="1" connect="1" arrows="1" fold="1" page="1" pageScale="1" pageWidth="1169" pageHeight="827" math="0" shadow="0">
      <root>
        <mxCell id="0" />
        <mxCell id="1" parent="0" />
        <mxCell id="YHS3nM_o33VYrpWFJg6t-3" value="" style="shape=folder;fontStyle=1;spacingTop=10;tabWidth=40;tabHeight=14;tabPosition=left;html=1;whiteSpace=wrap;movable=0;resizable=0;rotatable=0;deletable=0;editable=0;locked=1;connectable=0;" parent="1" vertex="1">
          <mxGeometry x="119" y="190" width="631" height="960" as="geometry" />
        </mxCell>
        <mxCell id="YHS3nM_o33VYrpWFJg6t-30" style="rounded=0;orthogonalLoop=1;jettySize=auto;html=1;exitX=1;exitY=1;exitDx=0;exitDy=0;exitPerimeter=0;entryX=0;entryY=0.5;entryDx=0;entryDy=0;" parent="1" source="YHS3nM_o33VYrpWFJg6t-4" target="YHS3nM_o33VYrpWFJg6t-5" edge="1">
          <mxGeometry relative="1" as="geometry">
            <mxPoint x="80" y="280" as="sourcePoint" />
          </mxGeometry>
        </mxCell>
        <mxCell id="YHS3nM_o33VYrpWFJg6t-31" style="rounded=0;orthogonalLoop=1;jettySize=auto;html=1;exitX=1;exitY=1;exitDx=0;exitDy=0;exitPerimeter=0;" parent="1" source="YHS3nM_o33VYrpWFJg6t-4" target="YHS3nM_o33VYrpWFJg6t-6" edge="1">
          <mxGeometry relative="1" as="geometry" />
        </mxCell>
        <mxCell id="YHS3nM_o33VYrpWFJg6t-32" style="rounded=0;orthogonalLoop=1;jettySize=auto;html=1;exitX=1;exitY=1;exitDx=0;exitDy=0;exitPerimeter=0;entryX=0;entryY=0.5;entryDx=0;entryDy=0;" parent="1" source="YHS3nM_o33VYrpWFJg6t-4" target="YHS3nM_o33VYrpWFJg6t-9" edge="1">
          <mxGeometry relative="1" as="geometry" />
        </mxCell>
        <mxCell id="YHS3nM_o33VYrpWFJg6t-33" style="rounded=0;orthogonalLoop=1;jettySize=auto;html=1;exitX=1;exitY=1;exitDx=0;exitDy=0;exitPerimeter=0;entryX=0;entryY=0.5;entryDx=0;entryDy=0;" parent="1" source="YHS3nM_o33VYrpWFJg6t-4" target="YHS3nM_o33VYrpWFJg6t-10" edge="1">
          <mxGeometry relative="1" as="geometry" />
        </mxCell>
        <mxCell id="YHS3nM_o33VYrpWFJg6t-34" style="rounded=0;orthogonalLoop=1;jettySize=auto;html=1;exitX=1;exitY=1;exitDx=0;exitDy=0;exitPerimeter=0;entryX=0;entryY=0.5;entryDx=0;entryDy=0;fillColor=#FF8000;" parent="1" source="YHS3nM_o33VYrpWFJg6t-4" target="YHS3nM_o33VYrpWFJg6t-17" edge="1">
          <mxGeometry relative="1" as="geometry" />
        </mxCell>
        <mxCell id="9Q8-I-4Kb-0GrQBa7QRd-3" style="rounded=0;orthogonalLoop=1;jettySize=auto;html=1;exitX=1;exitY=1;exitDx=0;exitDy=0;exitPerimeter=0;entryX=0;entryY=0.5;entryDx=0;entryDy=0;" edge="1" parent="1" source="YHS3nM_o33VYrpWFJg6t-4" target="9Q8-I-4Kb-0GrQBa7QRd-2">
          <mxGeometry relative="1" as="geometry" />
        </mxCell>
        <mxCell id="YHS3nM_o33VYrpWFJg6t-4" value="User" style="shape=umlActor;verticalLabelPosition=bottom;verticalAlign=top;html=1;" parent="1" vertex="1">
          <mxGeometry x="10" y="240" width="60" height="120" as="geometry" />
        </mxCell>
        <mxCell id="YHS3nM_o33VYrpWFJg6t-28" style="edgeStyle=orthogonalEdgeStyle;rounded=0;orthogonalLoop=1;jettySize=auto;html=1;" parent="1" source="YHS3nM_o33VYrpWFJg6t-5" edge="1">
          <mxGeometry relative="1" as="geometry">
            <mxPoint x="500" y="285" as="targetPoint" />
          </mxGeometry>
        </mxCell>
        <mxCell id="YHS3nM_o33VYrpWFJg6t-5" value="create a task" style="ellipse;whiteSpace=wrap;html=1;" parent="1" vertex="1">
          <mxGeometry x="200" y="250" width="120" height="70" as="geometry" />
        </mxCell>
        <mxCell id="8K0phRgxRvuUJz7w5qo8-8" style="edgeStyle=orthogonalEdgeStyle;rounded=0;orthogonalLoop=1;jettySize=auto;html=1;exitX=1;exitY=0.5;exitDx=0;exitDy=0;entryX=0;entryY=0.5;entryDx=0;entryDy=0;" parent="1" source="YHS3nM_o33VYrpWFJg6t-6" target="8K0phRgxRvuUJz7w5qo8-7" edge="1">
          <mxGeometry relative="1" as="geometry" />
        </mxCell>
        <mxCell id="YHS3nM_o33VYrpWFJg6t-6" value="Delete a task" style="ellipse;whiteSpace=wrap;html=1;" parent="1" vertex="1">
          <mxGeometry x="200" y="360" width="140" height="70" as="geometry" />
        </mxCell>
        <mxCell id="8K0phRgxRvuUJz7w5qo8-3" style="edgeStyle=orthogonalEdgeStyle;rounded=0;orthogonalLoop=1;jettySize=auto;html=1;exitX=1;exitY=0.5;exitDx=0;exitDy=0;entryX=0;entryY=0.5;entryDx=0;entryDy=0;" parent="1" source="YHS3nM_o33VYrpWFJg6t-9" target="YHS3nM_o33VYrpWFJg6t-37" edge="1">
          <mxGeometry relative="1" as="geometry" />
        </mxCell>
        <mxCell id="8K0phRgxRvuUJz7w5qo8-4" style="edgeStyle=orthogonalEdgeStyle;rounded=0;orthogonalLoop=1;jettySize=auto;html=1;exitX=1;exitY=1;exitDx=0;exitDy=0;entryX=0;entryY=0.5;entryDx=0;entryDy=0;" parent="1" source="YHS3nM_o33VYrpWFJg6t-9" target="YHS3nM_o33VYrpWFJg6t-38" edge="1">
          <mxGeometry relative="1" as="geometry" />
        </mxCell>
        <mxCell id="8K0phRgxRvuUJz7w5qo8-5" style="edgeStyle=orthogonalEdgeStyle;rounded=0;orthogonalLoop=1;jettySize=auto;html=1;exitX=0.5;exitY=1;exitDx=0;exitDy=0;entryX=0;entryY=0.5;entryDx=0;entryDy=0;" parent="1" source="YHS3nM_o33VYrpWFJg6t-9" target="YHS3nM_o33VYrpWFJg6t-39" edge="1">
          <mxGeometry relative="1" as="geometry" />
        </mxCell>
        <mxCell id="8K0phRgxRvuUJz7w5qo8-9" style="edgeStyle=orthogonalEdgeStyle;rounded=0;orthogonalLoop=1;jettySize=auto;html=1;exitX=1;exitY=0;exitDx=0;exitDy=0;entryX=0;entryY=0.5;entryDx=0;entryDy=0;" parent="1" source="YHS3nM_o33VYrpWFJg6t-9" target="8K0phRgxRvuUJz7w5qo8-6" edge="1">
          <mxGeometry relative="1" as="geometry">
            <Array as="points">
              <mxPoint x="330" y="550" />
              <mxPoint x="530" y="550" />
            </Array>
          </mxGeometry>
        </mxCell>
        <mxCell id="YHS3nM_o33VYrpWFJg6t-9" value="Modify a task" style="ellipse;whiteSpace=wrap;html=1;" parent="1" vertex="1">
          <mxGeometry x="210" y="600" width="140" height="70" as="geometry" />
        </mxCell>
        <mxCell id="YHS3nM_o33VYrpWFJg6t-10" value="display tasks" style="ellipse;whiteSpace=wrap;html=1;" parent="1" vertex="1">
          <mxGeometry x="210" y="810" width="140" height="70" as="geometry" />
        </mxCell>
        <mxCell id="YHS3nM_o33VYrpWFJg6t-12" value="filter tasks" style="ellipse;whiteSpace=wrap;html=1;" parent="1" vertex="1">
          <mxGeometry x="490" y="810" width="120" height="70" as="geometry" />
        </mxCell>
        <mxCell id="YHS3nM_o33VYrpWFJg6t-13" value="sort tasks" style="ellipse;whiteSpace=wrap;html=1;" parent="1" vertex="1">
          <mxGeometry x="460" y="920" width="140" height="70" as="geometry" />
        </mxCell>
        <mxCell id="YHS3nM_o33VYrpWFJg6t-17" value="Mark a task" style="ellipse;whiteSpace=wrap;html=1;" parent="1" vertex="1">
          <mxGeometry x="210" y="970" width="140" height="70" as="geometry" />
        </mxCell>
        <mxCell id="YHS3nM_o33VYrpWFJg6t-24" value="" style="endArrow=block;dashed=1;endFill=0;endSize=12;html=1;rounded=0;exitX=0;exitY=0.5;exitDx=0;exitDy=0;entryX=1;entryY=0.5;entryDx=0;entryDy=0;" parent="1" source="YHS3nM_o33VYrpWFJg6t-12" target="YHS3nM_o33VYrpWFJg6t-10" edge="1">
          <mxGeometry width="160" relative="1" as="geometry">
            <mxPoint x="360" y="595" as="sourcePoint" />
            <mxPoint x="380" y="810" as="targetPoint" />
          </mxGeometry>
        </mxCell>
        <mxCell id="YHS3nM_o33VYrpWFJg6t-25" value="extends" style="edgeLabel;html=1;align=center;verticalAlign=middle;resizable=0;points=[];" parent="YHS3nM_o33VYrpWFJg6t-24" vertex="1" connectable="0">
          <mxGeometry x="-0.3104" y="-1" relative="1" as="geometry">
            <mxPoint as="offset" />
          </mxGeometry>
        </mxCell>
        <mxCell id="YHS3nM_o33VYrpWFJg6t-26" value="" style="endArrow=block;dashed=1;endFill=0;endSize=12;html=1;rounded=0;entryX=0.5;entryY=1;entryDx=0;entryDy=0;edgeStyle=orthogonalEdgeStyle;exitX=0;exitY=0.5;exitDx=0;exitDy=0;" parent="1" source="YHS3nM_o33VYrpWFJg6t-13" target="YHS3nM_o33VYrpWFJg6t-10" edge="1">
          <mxGeometry width="160" relative="1" as="geometry">
            <mxPoint x="430" y="930" as="sourcePoint" />
            <mxPoint x="300" y="520" as="targetPoint" />
          </mxGeometry>
        </mxCell>
        <mxCell id="YHS3nM_o33VYrpWFJg6t-27" value="extends" style="edgeLabel;html=1;align=center;verticalAlign=middle;resizable=0;points=[];" parent="YHS3nM_o33VYrpWFJg6t-26" vertex="1" connectable="0">
          <mxGeometry x="0.0646" relative="1" as="geometry">
            <mxPoint as="offset" />
          </mxGeometry>
        </mxCell>
        <mxCell id="YHS3nM_o33VYrpWFJg6t-36" value="Modify name" style="ellipse;whiteSpace=wrap;html=1;" parent="1" vertex="1">
          <mxGeometry x="413" y="490" width="90" height="50" as="geometry" />
        </mxCell>
        <mxCell id="YHS3nM_o33VYrpWFJg6t-37" value="Modify deadline" style="ellipse;whiteSpace=wrap;html=1;" parent="1" vertex="1">
          <mxGeometry x="413" y="560" width="87" height="50" as="geometry" />
        </mxCell>
        <mxCell id="YHS3nM_o33VYrpWFJg6t-38" value="Modify&amp;nbsp;&lt;span style=&quot;background-color: transparent; color: light-dark(rgb(0, 0, 0), rgb(255, 255, 255));&quot;&gt;priority&lt;/span&gt;" style="ellipse;whiteSpace=wrap;html=1;" parent="1" vertex="1">
          <mxGeometry x="413" y="620" width="87" height="50" as="geometry" />
        </mxCell>
        <mxCell id="YHS3nM_o33VYrpWFJg6t-39" value="Modify&amp;nbsp;&lt;span style=&quot;background-color: transparent; color: light-dark(rgb(0, 0, 0), rgb(255, 255, 255));&quot;&gt;priority&lt;/span&gt;" style="ellipse;whiteSpace=wrap;html=1;" parent="1" vertex="1">
          <mxGeometry x="413" y="690" width="87" height="50" as="geometry" />
        </mxCell>
        <mxCell id="8K0phRgxRvuUJz7w5qo8-1" style="edgeStyle=orthogonalEdgeStyle;rounded=0;orthogonalLoop=1;jettySize=auto;html=1;entryX=0;entryY=0.5;entryDx=0;entryDy=0;exitX=0.5;exitY=0;exitDx=0;exitDy=0;" parent="1" source="YHS3nM_o33VYrpWFJg6t-9" target="YHS3nM_o33VYrpWFJg6t-36" edge="1">
          <mxGeometry relative="1" as="geometry">
            <mxPoint x="400" y="510" as="targetPoint" />
            <mxPoint x="280" y="590" as="sourcePoint" />
          </mxGeometry>
        </mxCell>
        <mxCell id="8K0phRgxRvuUJz7w5qo8-6" value="Confirm modification" style="ellipse;whiteSpace=wrap;html=1;" parent="1" vertex="1">
          <mxGeometry x="530" y="500" width="90" height="50" as="geometry" />
        </mxCell>
        <mxCell id="8K0phRgxRvuUJz7w5qo8-7" value="Confirm deleting" style="ellipse;whiteSpace=wrap;html=1;" parent="1" vertex="1">
          <mxGeometry x="389.5" y="370" width="90" height="50" as="geometry" />
        </mxCell>
        <mxCell id="9Q8-I-4Kb-0GrQBa7QRd-1" value="Confirm creating" style="ellipse;whiteSpace=wrap;html=1;" vertex="1" parent="1">
          <mxGeometry x="500" y="260" width="90" height="50" as="geometry" />
        </mxCell>
        <mxCell id="9Q8-I-4Kb-0GrQBa7QRd-2" value="display a category" style="ellipse;whiteSpace=wrap;html=1;" vertex="1" parent="1">
          <mxGeometry x="200" y="1060" width="140" height="70" as="geometry" />
        </mxCell>
        <mxCell id="9Q8-I-4Kb-0GrQBa7QRd-4" value="Cancel deleting" style="ellipse;whiteSpace=wrap;html=1;" vertex="1" parent="1">
          <mxGeometry x="389.5" y="430" width="90" height="50" as="geometry" />
        </mxCell>
        <mxCell id="9Q8-I-4Kb-0GrQBa7QRd-6" value="" style="endArrow=block;dashed=1;endFill=0;endSize=12;html=1;rounded=0;exitX=0;exitY=0.5;exitDx=0;exitDy=0;entryX=0.5;entryY=1;entryDx=0;entryDy=0;edgeStyle=orthogonalEdgeStyle;" edge="1" parent="1" target="YHS3nM_o33VYrpWFJg6t-6">
          <mxGeometry width="160" relative="1" as="geometry">
            <mxPoint x="389.5" y="460" as="sourcePoint" />
            <mxPoint x="249.5" y="460" as="targetPoint" />
          </mxGeometry>
        </mxCell>
        <mxCell id="9Q8-I-4Kb-0GrQBa7QRd-7" value="extends" style="edgeLabel;html=1;align=center;verticalAlign=middle;resizable=0;points=[];" vertex="1" connectable="0" parent="9Q8-I-4Kb-0GrQBa7QRd-6">
          <mxGeometry x="-0.3104" y="-1" relative="1" as="geometry">
            <mxPoint as="offset" />
          </mxGeometry>
        </mxCell>
        <mxCell id="9Q8-I-4Kb-0GrQBa7QRd-8" value="Cancel modifying" style="ellipse;whiteSpace=wrap;html=1;" vertex="1" parent="1">
          <mxGeometry x="560" y="660" width="90" height="50" as="geometry" />
        </mxCell>
        <mxCell id="9Q8-I-4Kb-0GrQBa7QRd-9" value="" style="endArrow=block;dashed=1;endFill=0;endSize=12;html=1;rounded=0;exitX=0.5;exitY=1;exitDx=0;exitDy=0;entryX=0.307;entryY=0.924;entryDx=0;entryDy=0;edgeStyle=orthogonalEdgeStyle;entryPerimeter=0;" edge="1" parent="1" source="9Q8-I-4Kb-0GrQBa7QRd-8" target="YHS3nM_o33VYrpWFJg6t-9">
          <mxGeometry width="160" relative="1" as="geometry">
            <mxPoint x="379.5" y="750" as="sourcePoint" />
            <mxPoint x="260" y="720" as="targetPoint" />
            <Array as="points">
              <mxPoint x="605" y="760" />
              <mxPoint x="260" y="760" />
              <mxPoint x="260" y="700" />
              <mxPoint x="253" y="700" />
            </Array>
          </mxGeometry>
        </mxCell>
        <mxCell id="9Q8-I-4Kb-0GrQBa7QRd-10" value="extends" style="edgeLabel;html=1;align=center;verticalAlign=middle;resizable=0;points=[];" vertex="1" connectable="0" parent="9Q8-I-4Kb-0GrQBa7QRd-9">
          <mxGeometry x="-0.3104" y="-1" relative="1" as="geometry">
            <mxPoint as="offset" />
          </mxGeometry>
        </mxCell>
        <mxCell id="9Q8-I-4Kb-0GrQBa7QRd-11" value="Cancel creating" style="ellipse;whiteSpace=wrap;html=1;" vertex="1" parent="1">
          <mxGeometry x="500" y="320" width="90" height="50" as="geometry" />
        </mxCell>
        <mxCell id="9Q8-I-4Kb-0GrQBa7QRd-12" value="" style="endArrow=block;dashed=1;endFill=0;endSize=12;html=1;rounded=0;exitX=0;exitY=0.5;exitDx=0;exitDy=0;entryX=0.5;entryY=1;entryDx=0;entryDy=0;edgeStyle=orthogonalEdgeStyle;" edge="1" parent="1" target="YHS3nM_o33VYrpWFJg6t-5">
          <mxGeometry width="160" relative="1" as="geometry">
            <mxPoint x="500" y="350" as="sourcePoint" />
            <mxPoint x="380.5" y="320" as="targetPoint" />
          </mxGeometry>
        </mxCell>
        <mxCell id="9Q8-I-4Kb-0GrQBa7QRd-13" value="extends" style="edgeLabel;html=1;align=center;verticalAlign=middle;resizable=0;points=[];" vertex="1" connectable="0" parent="9Q8-I-4Kb-0GrQBa7QRd-12">
          <mxGeometry x="-0.3104" y="-1" relative="1" as="geometry">
            <mxPoint as="offset" />
          </mxGeometry>
        </mxCell>
        <mxCell id="9Q8-I-4Kb-0GrQBa7QRd-15" value="&lt;font style=&quot;font-size: 18px;&quot;&gt;Task management software&lt;/font&gt;" style="text;strokeColor=none;align=center;fillColor=none;html=1;verticalAlign=middle;whiteSpace=wrap;rounded=0;movable=0;resizable=0;rotatable=0;deletable=0;editable=0;locked=1;connectable=0;" vertex="1" parent="1">
          <mxGeometry x="120" y="210" width="240" height="30" as="geometry" />
        </mxCell>
      </root>
    </mxGraphModel>
  </diagram>
</mxfile>
